<?xml version="1.0" standalone="no"?>
<!DOCTYPE svg PUBLIC "-//W3C//DTD SVG 20010904//EN"
 "http://www.w3.org/TR/2001/REC-SVG-20010904/DTD/svg10.dtd">
<svg version="1.0" xmlns="http://www.w3.org/2000/svg"
 width="500.000000pt" height="500.000000pt" viewBox="0 0 500.000000 500.000000"
 preserveAspectRatio="xMidYMid meet">
<metadata>
Created by potrace 1.14, written by Peter Selinger 2001-2017
</metadata>
<g transform="translate(0.000000,500.000000) scale(0.100000,-0.100000)"
fill="#000000" stroke="none">
<path d="M1689 3987 c-146 -124 -461 -483 -673 -767 -96 -128 -120 -148 -174
-148 -27 0 -65 -11 -99 -27 -109 -54 -209 -186 -173 -230 26 -32 60 -16 185
88 43 37 80 65 82 63 2 -1 -3 -16 -11 -32 -29 -58 -29 -79 -3 -110 23 -26 31
-29 85 -27 66 2 207 45 302 93 63 32 67 32 49 -2 -6 -11 -8 -30 -5 -43 13 -51
73 -33 196 58 41 30 76 54 78 53 1 -2 -5 -19 -13 -39 -20 -49 -19 -61 8 -92
19 -23 31 -27 72 -26 107 1 455 156 455 204 0 23 -13 22 -58 -7 -95 -60 -245
-127 -340 -151 -129 -34 -144 28 -38 155 45 54 58 90 33 90 -16 0 -40 -17
-159 -112 -103 -81 -185 -134 -194 -125 -13 13 12 53 71 116 43 46 61 71 55
80 -6 10 -21 4 -62 -27 -122 -93 -412 -206 -482 -188 -39 10 -42 32 -13 92 19
39 33 54 47 54 16 0 20 7 20 34 0 31 27 61 333 367 319 321 515 535 553 604
22 41 13 65 -24 65 -21 0 -49 -17 -103 -63z m101 17 c0 -18 -172 -205 -398
-433 -186 -188 -237 -235 -190 -176 248 314 588 665 588 609z m-1000 -1021
c-78 -70 -170 -143 -181 -143 -36 0 49 108 119 152 37 23 104 49 111 42 2 -2
-20 -25 -49 -51z"/>
<path d="M2745 3619 c-192 -28 -423 -162 -589 -341 -72 -77 -93 -118 -62 -118
7 0 34 26 59 59 211 269 659 452 802 328 55 -47 46 -157 -24 -300 -126 -258
-412 -488 -673 -543 -87 -19 -181 -14 -209 12 -42 38 -10 116 77 185 42 33 94
63 94 54 0 -3 -17 -29 -38 -58 -57 -76 -66 -97 -52 -111 13 -13 12 -14 109
124 60 84 68 91 115 105 93 28 188 38 303 31 62 -3 114 -2 117 3 27 43 -208
52 -393 15 l-35 -7 85 103 c46 57 126 148 178 202 63 66 91 103 87 113 -4 12
-10 14 -25 5 -27 -14 -178 -182 -295 -327 -82 -102 -106 -126 -149 -146 -124
-58 -224 -157 -234 -235 -11 -81 39 -117 162 -116 105 1 188 23 310 83 116 57
213 127 305 221 196 197 305 461 241 580 -35 66 -141 98 -266 79z"/>
<path d="M3825 3111 c-65 -81 -94 -108 -155 -145 -147 -89 -349 -156 -384
-126 -31 25 -20 62 60 197 14 25 16 35 7 44 -9 9 -22 5 -58 -15 -37 -22 -49
-25 -61 -15 -46 38 -199 -20 -298 -114 -58 -55 -77 -97 -56 -122 32 -38 109
-8 283 111 59 41 107 72 107 70 0 -2 -9 -23 -20 -47 -25 -56 -25 -100 -1 -130
37 -46 153 -25 339 61 l83 39 -58 -74 c-32 -40 -142 -181 -245 -312 -102 -132
-228 -289 -280 -349 -110 -129 -217 -265 -247 -314 -23 -38 -28 -70 -10 -70
16 0 59 51 232 275 265 345 636 751 789 865 75 57 162 99 175 86 14 -13 -18
-56 -74 -98 -47 -37 -68 -46 -111 -50 -54 -5 -90 -27 -78 -47 10 -15 49 -14
110 3 28 8 104 22 169 31 213 29 424 114 368 149 -4 3 -33 -7 -62 -23 -68 -37
-168 -67 -282 -85 l-89 -13 35 36 c60 62 74 111 37 131 -54 29 -202 -57 -367
-212 -73 -70 -69 -63 90 136 92 114 164 212 161 217 -13 21 -34 4 -109 -90z
m-618 -96 c3 -9 -178 -137 -234 -164 -27 -13 -63 -14 -63 -2 0 19 52 70 107
107 92 61 180 88 190 59z"/>
<path d="M980 1590 l0 -120 65 0 c77 0 118 17 145 63 24 39 25 68 5 111 -23
48 -61 66 -144 66 l-71 0 0 -120z m176 66 c33 -37 33 -98 0 -131 -25 -25 -74
-39 -122 -33 l-29 3 -3 99 -3 98 67 -4 c58 -4 70 -8 90 -32z"/>
<path d="M1280 1590 c0 -100 3 -120 15 -120 13 0 15 20 15 120 0 100 -2 120
-15 120 -12 0 -15 -20 -15 -120z"/>
<path d="M1426 1680 c-41 -36 -53 -84 -33 -132 21 -49 51 -70 107 -76 72 -7
100 14 100 73 0 57 -18 59 -22 3 -3 -38 -6 -43 -35 -51 -104 -30 -179 89 -103
165 27 26 36 29 73 25 23 -2 53 -8 67 -12 l25 -7 -24 21 c-37 34 -111 29 -155
-9z"/>
<path d="M1790 1648 c1 -133 28 -178 107 -178 33 0 50 6 68 25 23 22 25 32 25
120 0 57 -4 95 -10 95 -6 0 -10 -35 -10 -85 0 -78 -2 -88 -25 -110 -31 -32
-69 -32 -100 0 -23 22 -25 32 -25 110 0 69 -3 85 -15 85 -12 0 -15 -14 -15
-62z"/>
<path d="M2090 1590 c0 -68 4 -120 9 -120 6 0 11 17 13 38 l3 37 63 5 c51 4
68 10 83 29 26 32 24 77 -6 106 -21 22 -33 25 -95 25 l-70 0 0 -120z m138 84
c26 -18 29 -60 5 -86 -12 -13 -30 -18 -70 -18 l-53 0 0 60 0 60 48 0 c27 0 57
-7 70 -16z"/>
<path d="M2460 1590 l0 -120 66 0 c38 0 79 6 98 15 60 29 83 103 51 165 -22
43 -63 60 -145 60 l-70 0 0 -120z m169 74 c26 -22 31 -33 31 -69 0 -68 -31
-97 -108 -103 l-62 -4 0 101 0 101 54 0 c44 0 60 -5 85 -26z"/>
<path d="M2786 1603 c-62 -139 -60 -133 -47 -133 6 0 17 14 26 30 15 29 18 30
86 30 69 0 70 -1 80 -30 6 -16 17 -30 25 -30 8 0 14 2 14 4 0 20 -112 236
-122 236 -8 0 -35 -47 -62 -107z m90 22 c13 -31 24 -58 24 -60 0 -3 -25 -5
-54 -5 l-55 0 27 60 c15 32 28 59 30 60 2 0 14 -25 28 -55z"/>
<path d="M3140 1590 c0 -68 4 -120 9 -120 6 0 11 17 13 38 l3 37 63 5 c51 4
68 10 83 29 26 32 24 77 -6 106 -21 22 -33 25 -95 25 l-70 0 0 -120z m138 84
c26 -18 29 -60 5 -86 -12 -13 -30 -18 -70 -18 l-53 0 0 60 0 60 48 0 c27 0 57
-7 70 -16z"/>
<path d="M3426 1603 c-62 -139 -60 -133 -47 -133 6 0 17 14 26 30 15 29 18 30
86 30 69 0 70 -1 80 -30 6 -16 17 -30 25 -30 8 0 14 2 14 4 0 20 -112 236
-122 236 -8 0 -35 -47 -62 -107z m90 22 c13 -31 24 -58 24 -60 0 -3 -25 -5
-54 -5 l-55 0 27 60 c15 32 28 59 30 60 2 0 14 -25 28 -55z"/>
<path d="M3670 1690 c-41 -41 -14 -90 62 -110 52 -14 68 -26 68 -51 0 -38 -68
-51 -120 -24 -25 13 -30 13 -30 2 0 -19 44 -37 91 -37 29 0 47 7 64 25 44 43
26 78 -55 104 -61 20 -81 41 -64 69 13 20 74 28 104 12 16 -8 20 -8 20 4 0 33
-108 38 -140 6z"/>
<path d="M3860 1700 c0 -5 20 -10 45 -10 l45 0 0 -110 c0 -67 4 -110 10 -110
6 0 10 43 10 110 l0 110 45 0 c25 0 45 5 45 10 0 6 -40 10 -100 10 -60 0 -100
-4 -100 -10z"/>
</g>
</svg>
